<?plantuml 1.2026.1?><svg xmlns="http://www.w3.org/2000/svg" xmlns:xlink="http://www.w3.org/1999/xlink" contentStyleType="text/css" data-diagram-type="DESCRIPTION" height="550px" preserveAspectRatio="none" style="width:551px;height:550px;background:#F8FAFC;" version="1.1" viewBox="0 0 551 550" width="551px" zoomAndPan="magnify"><title>System Context: YDB Qdrant-compatible Service</title><defs/><g><rect fill="#F8FAFC" height="550" style="stroke:none;stroke-width:1;" width="551" x="0" y="0"/><g class="title" data-source-line="1"><text fill="#000000" font-family="sans-serif" font-size="14" font-weight="bold" lengthAdjust="spacing" textLength="384.3369" x="76.6671" y="22.9951">System Context: YDB Qdrant-compatible Service</text></g><!--entity user--><g class="entity" data-qualified-name="user" data-source-line="16" id="ent0002"><ellipse cx="233.4768" cy="51.2969" fill="#F1F1F1" rx="8" ry="8" style="stroke:#181818;stroke-width:0.5;"/><path d="M233.4768,59.2969 L233.4768,86.2969 M220.4768,67.2969 L246.4768,67.2969 M233.4768,86.2969 L220.4768,101.2969 M233.4768,86.2969 L246.4768,101.2969" fill="none" style="stroke:#181818;stroke-width:0.5;"/><text fill="#000000" font-family="sans-serif" font-size="14" lengthAdjust="spacing" textLength="99.3262" x="166.97" y="115.792">IDE / RAG App</text><text fill="#000000" font-family="sans-serif" font-size="14" lengthAdjust="spacing" textLength="115.541" x="166.97" y="132.0889">Roo Code, Cline,</text><text fill="#000000" font-family="sans-serif" font-size="14" lengthAdjust="spacing" textLength="133.0137" x="166.97" y="148.3857">or backend service</text></g><!--entity ydbq--><g class="entity" data-qualified-name="ydbq" data-source-line="17" id="ent0003"><rect fill="#FFFFFF" height="117.7813" rx="2.5" ry="2.5" style="stroke:#2563EB;stroke-width:0.5;" width="218.8506" x="124.06" y="228.6869"/><text fill="#0F172A" font-family="sans-serif" font-size="14" lengthAdjust="spacing" textLength="77.5811" x="134.06" y="251.682">ydb-qdrant</text><text fill="#0F172A" font-family="sans-serif" font-size="14" lengthAdjust="spacing" textLength="4.4502" x="134.06" y="267.9789">&#160;</text><text fill="#0F172A" font-family="sans-serif" font-size="14" lengthAdjust="spacing" textLength="198.8506" x="134.06" y="284.2757">Qdrant-compatible REST API</text><text fill="#0F172A" font-family="sans-serif" font-size="14" lengthAdjust="spacing" textLength="178.835" x="134.06" y="300.5726">Node.js library entrypoint</text><text fill="#0F172A" font-family="sans-serif" font-size="14" lengthAdjust="spacing" textLength="130.71" x="134.06" y="316.8695">Exact top-k search</text><text fill="#0F172A" font-family="sans-serif" font-size="14" lengthAdjust="spacing" textLength="182.0752" x="134.06" y="333.1664">api-key / userUid isolation</text></g><!--entity ydb--><g class="entity" data-qualified-name="ydb" data-source-line="18" id="ent0004"><path d="M6,433.4769 C6,423.4769 90.481,423.4769 90.481,423.4769 C90.481,423.4769 174.9619,423.4769 174.9619,433.4769 L174.9619,523.9613 C174.9619,533.9613 90.481,533.9613 90.481,533.9613 C90.481,533.9613 6,533.9613 6,523.9613 L6,433.4769" fill="#EEF2FF" style="stroke:#4F46E5;stroke-width:0.5;"/><path d="M6,433.4769 C6,443.4769 90.481,443.4769 90.481,443.4769 C90.481,443.4769 174.9619,443.4769 174.9619,433.4769" fill="none" style="stroke:#4F46E5;stroke-width:0.5;"/><text fill="#0F172A" font-family="sans-serif" font-size="14" lengthAdjust="spacing" textLength="28.9365" x="16" y="460.472">YDB</text><text fill="#0F172A" font-family="sans-serif" font-size="14" lengthAdjust="spacing" textLength="4.4502" x="16" y="476.7689">&#160;</text><text fill="#0F172A" font-family="sans-serif" font-size="14" lengthAdjust="spacing" textLength="111.9932" x="16" y="493.0657">qdr__collections</text><text fill="#0F172A" font-family="sans-serif" font-size="14" lengthAdjust="spacing" textLength="119.8271" x="16" y="509.3626">qdrant_all_points</text><text fill="#0F172A" font-family="sans-serif" font-size="14" lengthAdjust="spacing" textLength="148.9619" x="16" y="525.6595">qdrant_points_by_file</text></g><g class="entity" data-qualified-name="GMN7" data-source-line="24" id="ent0008"><path d="M210.3,451.0169 L210.3,506.4153 A0,0 0 0 0 210.3,506.4153 L544.6711,506.4153 A0,0 0 0 0 544.6711,506.4153 L544.6711,461.0169 L534.6711,451.0169 L360.92,451.0169 L277.86,346.8669 L352.92,451.0169 L210.3,451.0169 A0,0 0 0 0 210.3,451.0169" fill="#FEFFDD" style="stroke:#181818;stroke-width:0.5;"/><path d="M534.6711,451.0169 L534.6711,461.0169 L544.6711,461.0169 L534.6711,451.0169" fill="#FEFFDD" style="stroke:#181818;stroke-width:0.5;"/><text fill="#000000" font-family="sans-serif" font-size="13" lengthAdjust="spacing" textLength="259.251" x="216.3" y="468.0838">Public demo or self-hosted deployment.</text><text fill="#000000" font-family="sans-serif" font-size="13" lengthAdjust="spacing" textLength="264.0435" x="216.3" y="483.2166">Supports million-vector collections when</text><text fill="#000000" font-family="sans-serif" font-size="13" lengthAdjust="spacing" textLength="313.3711" x="216.3" y="498.3494">capacity and latency are sized for the workload.</text></g><!--link user to ydbq--><g class="link" data-entity-1="ent0002" data-entity-2="ent0003" data-link-type="dependency" data-source-line="20" id="lnk5"><path d="M233.48,151.9669 C233.48,175.8869 233.48,198.0969 233.48,222.5069" fill="none" id="user-to-ydbq" style="stroke:#181818;stroke-width:1;"/><polygon fill="#181818" points="233.48,228.5069,237.48,219.5069,233.48,223.5069,229.48,219.5069,233.48,228.5069" style="stroke:#181818;stroke-width:1;"/><text fill="#000000" font-family="sans-serif" font-size="13" lengthAdjust="spacing" textLength="82.7036" x="234.48" y="194.7538">Qdrant REST</text></g><!--link ydbq to ydb--><g class="link" data-entity-1="ent0003" data-entity-2="ent0004" data-link-type="dependency" data-source-line="21" id="lnk6"><path d="M189.41,346.8669 C171.03,371.1869 153.4086,394.4808 135.3386,418.3808" fill="none" id="ydbq-to-ydb" style="stroke:#181818;stroke-width:1;"/><polygon fill="#181818" points="131.72,423.1669,140.3385,418.4002,134.7355,419.1785,133.9572,413.5755,131.72,423.1669" style="stroke:#181818;stroke-width:1;"/><text fill="#000000" font-family="sans-serif" font-size="13" lengthAdjust="spacing" textLength="64.8477" x="167.48" y="389.5438">YQL / SDK</text></g><?plantuml-src TL9HRzCm47xthpYLrwL0sGRQ0rBQ9cW2eQs5XqcH8iU-jgQEpxFTTG7ntxcaXLNQo5FytVdxlllEoIIBiEnYmXPcv18-fYkucq_XLWVfKgQezJAPfk_2y60K2X6tndaPP0kDLDjre9tJCx8Ku5NveSpBsKb7t4XDU-FMi98suaabe4hIhPdubm2OKj0OZYoJYyjtnRH7d_4F7rTAzdh4tfHltqzoyVk4Myia6nbVe3ulpo-BYvUeYwAS_9TQI9KO65tF2tWDY_mJvDvNRa74gMayWvar3iygnqrzAEWqn4DU8v0HTdmGJnEFEjrazqF2bQlSywmNnV8Rv3VNbVlAzECV4QnfWWmTe4kXysJwcyKZsu94FjkocWngKpdfJRR5Zbtscj-D1XF9CYsvmGahtuj_-OnurRq3zbBNYgnbYzmP1uGzrTBQUb1xWWx7kkdgbR7ubrI8NW-oxECW0LV75pIC8WReMEFItUqNDhYSVnR2KK9eA2LgWLO7Um0tkyOQ1HfR0euqebrb6-9NgXdpbhgMSnXputBdFOKKeJNMilFi0OTDdSm2-mqwRbNIIsLI1vANmucWK_mV4ABvoRmhlfKs27iAMqjIZqM_nDxU7m00?></g></svg>