<?plantuml 1.2026.1?><svg xmlns="http://www.w3.org/2000/svg" xmlns:xlink="http://www.w3.org/1999/xlink" contentStyleType="text/css" data-diagram-type="DESCRIPTION" height="658px" preserveAspectRatio="none" style="width:767px;height:658px;background:#F8FAFC;" version="1.1" viewBox="0 0 767 658" width="767px" zoomAndPan="magnify"><title>Component Diagram: YDB Integration</title><defs/><g><rect fill="#F8FAFC" height="658" style="stroke:none;stroke-width:1;" width="767" x="0" y="0"/><g class="title" data-source-line="1"><text fill="#000000" font-family="sans-serif" font-size="14" font-weight="bold" lengthAdjust="spacing" textLength="298.5322" x="227.677" y="22.9951">Component Diagram: YDB Integration</text></g><!--entity env--><g class="entity" data-qualified-name="env" data-source-line="15" id="ent0002"><rect fill="#FFFFFF" height="85.1875" rx="2.5" ry="2.5" style="stroke:#7C3AED;stroke-width:0.5;" width="198.4658" x="154.11" y="44.2969"/><text fill="#0F172A" font-family="sans-serif" font-size="14" lengthAdjust="spacing" textLength="139.0703" x="164.11" y="67.292">Environment Config</text><text fill="#0F172A" font-family="sans-serif" font-size="14" lengthAdjust="spacing" textLength="175.7793" x="164.11" y="83.5889">YDB_QDRANT_ENDPOINT</text><text fill="#0F172A" font-family="sans-serif" font-size="14" lengthAdjust="spacing" textLength="178.4658" x="164.11" y="99.8857">YDB_QDRANT_DATABASE</text><text fill="#0F172A" font-family="sans-serif" font-size="14" lengthAdjust="spacing" textLength="147.3281" x="164.11" y="116.1826">YDB_*_CREDENTIALS</text></g><!--entity driver--><g class="entity" data-qualified-name="driver" data-source-line="16" id="ent0003"><rect fill="#FFFFFF" height="85.1875" rx="2.5" ry="2.5" style="stroke:#7C3AED;stroke-width:0.5;" width="194.1865" x="277.25" y="206.4869"/><text fill="#0F172A" font-family="sans-serif" font-size="14" lengthAdjust="spacing" textLength="76.4668" x="287.25" y="229.482">YDB Driver</text><text fill="#0F172A" font-family="sans-serif" font-size="14" lengthAdjust="spacing" textLength="111.0156" x="287.25" y="245.7789">readyOrThrow()</text><text fill="#0F172A" font-family="sans-serif" font-size="14" lengthAdjust="spacing" textLength="94.042" x="287.25" y="262.0757">withSession()</text><text fill="#0F172A" font-family="sans-serif" font-size="14" lengthAdjust="spacing" textLength="174.1865" x="287.25" y="278.3726">refresh on session errors</text></g><!--entity schema--><g class="entity" data-qualified-name="schema" data-source-line="17" id="ent0004"><rect fill="#FFFFFF" height="85.1875" rx="2.5" ry="2.5" style="stroke:#7C3AED;stroke-width:0.5;" width="204.6797" x="181.01" y="368.6769"/><text fill="#0F172A" font-family="sans-serif" font-size="14" lengthAdjust="spacing" textLength="110.9746" x="191.01" y="391.672">Schema Guards</text><text fill="#0F172A" font-family="sans-serif" font-size="14" lengthAdjust="spacing" textLength="132.2275" x="191.01" y="407.9689">ensureMetaTable()</text><text fill="#0F172A" font-family="sans-serif" font-size="14" lengthAdjust="spacing" textLength="184.6797" x="191.01" y="424.2657">ensureGlobalPointsTable()</text><text fill="#0F172A" font-family="sans-serif" font-size="14" lengthAdjust="spacing" textLength="182.3555" x="191.01" y="440.5626">ensurePointsByFileTable()</text></g><!--entity vectorHelpers--><g class="entity" data-qualified-name="vectorHelpers" data-source-line="18" id="ent0005"><rect fill="#FFFFFF" height="68.8906" rx="2.5" ry="2.5" style="stroke:#7C3AED;stroke-width:0.5;" width="205.0762" x="556.81" y="376.8269"/><text fill="#0F172A" font-family="sans-serif" font-size="14" lengthAdjust="spacing" textLength="103.7285" x="566.81" y="399.822">Vector Helpers</text><text fill="#0F172A" font-family="sans-serif" font-size="14" lengthAdjust="spacing" textLength="174.8223" x="566.81" y="416.1189">Knn::ToBinaryStringFloat</text><text fill="#0F172A" font-family="sans-serif" font-size="14" lengthAdjust="spacing" textLength="185.0762" x="566.81" y="432.4157">binary embedding params</text></g><!--entity timeouts--><g class="entity" data-qualified-name="timeouts" data-source-line="19" id="ent0006"><rect fill="#FFFFFF" height="52.5938" rx="2.5" ry="2.5" style="stroke:#7C3AED;stroke-width:0.5;" width="215.5215" x="387.59" y="60.5969"/><text fill="#0F172A" font-family="sans-serif" font-size="14" lengthAdjust="spacing" textLength="126.8613" x="397.59" y="83.592">Request Timeouts</text><text fill="#0F172A" font-family="sans-serif" font-size="14" lengthAdjust="spacing" textLength="195.5215" x="397.59" y="99.8889">search/upsert/session limits</text></g><!--entity ydb--><g class="entity" data-qualified-name="ydb" data-source-line="20" id="ent0007"><path d="M413.86,540.8669 C413.86,530.8669 498.341,530.8669 498.341,530.8669 C498.341,530.8669 582.8219,530.8669 582.8219,540.8669 L582.8219,631.3512 C582.8219,641.3512 498.341,641.3512 498.341,641.3512 C498.341,641.3512 413.86,641.3512 413.86,631.3512 L413.86,540.8669" fill="#EEF2FF" style="stroke:#4F46E5;stroke-width:0.5;"/><path d="M413.86,540.8669 C413.86,550.8669 498.341,550.8669 498.341,550.8669 C498.341,550.8669 582.8219,550.8669 582.8219,540.8669" fill="none" style="stroke:#4F46E5;stroke-width:0.5;"/><text fill="#000000" font-family="sans-serif" font-size="14" lengthAdjust="spacing" textLength="28.9365" x="423.86" y="567.862">YDB</text><text fill="#000000" font-family="sans-serif" font-size="14" lengthAdjust="spacing" textLength="4.4502" x="423.86" y="584.1589">&#160;</text><text fill="#000000" font-family="sans-serif" font-size="14" lengthAdjust="spacing" textLength="111.9932" x="423.86" y="600.4557">qdr__collections</text><text fill="#000000" font-family="sans-serif" font-size="14" lengthAdjust="spacing" textLength="119.8271" x="423.86" y="616.7526">qdrant_all_points</text><text fill="#000000" font-family="sans-serif" font-size="14" lengthAdjust="spacing" textLength="148.9619" x="423.86" y="633.0495">qdrant_points_by_file</text></g><g class="entity" data-qualified-name="GMN14" data-source-line="30" id="ent0015"><path d="M6,558.4069 L6,613.8053 A0,0 0 0 0 6,613.8053 L378.6919,613.8053 A0,0 0 0 0 378.6919,613.8053 L378.6919,568.4069 L368.6919,558.4069 L210.66,558.4069 L261.32,454.1069 L202.66,558.4069 L6,558.4069 A0,0 0 0 0 6,558.4069" fill="#FEFFDD" style="stroke:#181818;stroke-width:0.5;"/><path d="M368.6919,558.4069 L368.6919,568.4069 L378.6919,568.4069 L368.6919,558.4069" fill="#FEFFDD" style="stroke:#181818;stroke-width:0.5;"/><text fill="#000000" font-family="sans-serif" font-size="13" lengthAdjust="spacing" textLength="351.6919" x="12" y="575.4738">Metadata table must already use the current schema.</text><text fill="#000000" font-family="sans-serif" font-size="13" lengthAdjust="spacing" textLength="333.709" x="12" y="590.6066">Global points and path lookup tables are validated;</text><text fill="#000000" font-family="sans-serif" font-size="13" lengthAdjust="spacing" textLength="342.6021" x="12" y="605.7394">missing required columns require manual migration.</text></g><!--link env to driver--><g class="link" data-entity-1="ent0002" data-entity-2="ent0003" data-link-type="dependency" data-source-line="22" id="lnk8"><path d="M282.9,129.6569 C293.6,144.5469 305.88,161.3669 317.35,176.4869 C324.74,186.2369 329.1084,191.8985 336.8284,201.6185" fill="none" id="env-to-driver" style="stroke:#181818;stroke-width:1;"/><polygon fill="#181818" points="340.56,206.3169,338.0948,196.7815,337.4503,202.4016,331.8303,201.7571,340.56,206.3169" style="stroke:#181818;stroke-width:1;"/><text fill="#000000" font-family="sans-serif" font-size="13" lengthAdjust="spacing" textLength="133.8911" x="318.35" y="172.5538">connection and auth</text></g><!--link driver to schema--><g class="link" data-entity-1="ent0003" data-entity-2="ent0004" data-link-type="dependency" data-source-line="23" id="lnk9"><path d="M303.48,291.8969 C294.15,300.5269 285.9,310.4669 280.35,321.6769 C273.31,335.8769 271.8568,347.0234 273.3068,362.4034" fill="none" id="driver-to-schema" style="stroke:#181818;stroke-width:1;"/><polygon fill="#181818" points="273.87,368.3769,277.0076,359.0412,273.4007,363.3989,269.0429,359.7921,273.87,368.3769" style="stroke:#181818;stroke-width:1;"/><text fill="#000000" font-family="sans-serif" font-size="13" lengthAdjust="spacing" textLength="157.8853" x="281.35" y="334.7438">describe/create/validate</text></g><!--link driver to ydb--><g class="link" data-entity-1="ent0003" data-entity-2="ent0007" data-link-type="dependency" data-source-line="24" id="lnk10"><path d="M422.1,292.0169 C430.2,301.0869 437.78,311.1469 443.35,321.6769 C462.15,357.2469 479.6509,458.2746 489.6809,524.4546" fill="none" id="driver-to-ydb" style="stroke:#181818;stroke-width:1;"/><polygon fill="#181818" points="490.58,530.3869,493.1862,520.8891,489.8308,525.4433,485.2766,522.0879,490.58,530.3869" style="stroke:#181818;stroke-width:1;"/><text fill="#000000" font-family="sans-serif" font-size="13" lengthAdjust="spacing" textLength="54.8945" x="478.35" y="415.8338">sessions</text></g><!--link schema to ydb--><g class="link" data-entity-1="ent0004" data-entity-2="ent0007" data-link-type="dependency" data-source-line="25" id="lnk11"><path d="M284.69,454.2669 C287.24,470.5769 292.78,488.3069 304.35,500.8669 C333.48,532.4969 356.77,514.0369 396.35,530.8669 C401.98,533.2569 402.2843,533.2853 408.0243,535.9953" fill="none" id="schema-to-ydb" style="stroke:#181818;stroke-width:1;"/><polygon fill="#181818" points="413.45,538.5569,407.0192,531.0973,408.9286,536.4222,403.6037,538.3316,413.45,538.5569" style="stroke:#181818;stroke-width:1;"/><text fill="#000000" font-family="sans-serif" font-size="13" lengthAdjust="spacing" textLength="133.9609" x="305.35" y="496.9338">current schema only</text></g><!--link vectorHelpers to ydb--><g class="link" data-entity-1="ent0005" data-entity-2="ent0007" data-link-type="dependency" data-source-line="26" id="lnk12"><path d="M627.92,446.0069 C605.59,469.9769 579.2101,498.297 553.4201,525.977" fill="none" id="vectorHelpers-to-ydb" style="stroke:#181818;stroke-width:1;"/><polygon fill="#181818" points="549.33,530.3669,558.3918,526.5088,552.7384,526.7087,552.5386,521.0553,549.33,530.3669" style="stroke:#181818;stroke-width:1;"/><text fill="#000000" font-family="sans-serif" font-size="13" lengthAdjust="spacing" textLength="132.0503" x="589.35" y="496.9338">typed query params</text></g><!--link timeouts to driver--><g class="link" data-entity-1="ent0006" data-entity-2="ent0003" data-link-type="dependency" data-source-line="27" id="lnk13"><path d="M487.44,113.5169 C480.93,132.1069 470.48,157.2569 456.35,176.4869 C448.62,186.9969 443.5114,192.9592 433.7214,202.0292" fill="none" id="timeouts-to-driver" style="stroke:#181818;stroke-width:1;"/><polygon fill="#181818" points="429.32,206.1069,438.6406,202.9246,432.9878,202.7088,433.2036,197.0561,429.32,206.1069" style="stroke:#181818;stroke-width:1;"/><text fill="#000000" font-family="sans-serif" font-size="13" lengthAdjust="spacing" textLength="130.5078" x="466.35" y="172.5538">bounded operations</text></g><?plantuml-src RPHlRzCm4CRVvrESnXj0sWfZC5GafBH9nWHqeusGa2f5Jdnjh3ddp7OwLMZVdSkVRjbONiNFdNzdFtU9LruZp4rL6qBo42cnjQAQmfze1fVaaLTU6Ge2TwEe5Xo3N1GtMsiQadEZZOLNoUSaJEQZ35SAQUuKRM4ZjCDHn6BX1Msvvjy0O6QiH3jGpkSVmZXgrV_utSEHn90Vj7V9-_FJCBWViQNm8XVk1VHPSlOf_lWIEewJKqRV1y7ZoOvYsYbhg6eDcHlQgEsQs8_iLxGC5saMBwBhgyj5-aICmZISXQku5zzcysKSnOlqClonEWBX06atBj7Q6rcrGxicYqBkhsnQMdFt-isQxfGlL-WSszukBMuikX8CWUjLG6kDTHrNTf0nUbMKM0cuQ8ILRirTTOt5d-X5AdADBR6NBhJ9XRusYhnx5kh5sJvH6eTGLynrw76nt_pAFdv3NQFbQj-9fjFKp1G9krzvopEGQ2Fycl9E0gnobB8TZQvf_ILs7MM0ZF5Bl6tGUKXLXQRnNC2Xi4KvQMg7rayEXcXLAT-p_90QF8n3Q_QQrdGhRPOLHclcyoRNAO9y9hJEwkxA3rA_pF9zjc4FEl1Uva70ROJZuw-3xJ25mX3rF10aGJI-38PWczSxndaINM5LZfE2s-rniXDQyGbndCmLE7Euamk6lO-Heh6sdSaXO4ZlWoVMZNBzlaO9x1vxtZiT79nvUe6y_HeurJ2W-zHT493no07lJGLcSsWxG3j5hQtWsw60gk7M2DtDBpJij2_nsI5FU5S_QD1RshbK2r-2DkQcgNiKonRXu8dymhignJRmc5WU0MNvWDovfY9t4A0Ir32sKiClweIR8w4z-Zy0?></g></svg>