<?plantuml 1.2026.1?><svg xmlns="http://www.w3.org/2000/svg" xmlns:xlink="http://www.w3.org/1999/xlink" contentStyleType="text/css" data-diagram-type="DESCRIPTION" height="400px" preserveAspectRatio="none" style="width:1048px;height:400px;background:#F8FAFC;" version="1.1" viewBox="0 0 1048 400" width="1048px" zoomAndPan="magnify"><title>Component Diagram: Repository Layer</title><defs/><g><rect fill="#F8FAFC" height="400" style="stroke:none;stroke-width:1;" width="1048" x="0" y="0"/><g class="title" data-source-line="1"><text fill="#000000" font-family="sans-serif" font-size="14" font-weight="bold" lengthAdjust="spacing" textLength="306.5713" x="363.7821" y="22.9951">Component Diagram: Repository Layer</text></g><!--cluster Repository layer--><g class="cluster" data-qualified-name="Repository layer" data-source-line="19" id="ent0002"><path d="M8.5,43.2969 L139.5332,43.2969 A3.75,3.75 0 0 1 142.0332,45.7969 L149.0332,65.5938 L744.5,65.5938 A2.5,2.5 0 0 1 747,68.0938 L747,351.8269 A2.5,2.5 0 0 1 744.5,354.3269 L8.5,354.3269 A2.5,2.5 0 0 1 6,351.8269 L6,45.7969 A2.5,2.5 0 0 1 8.5,43.2969" fill="#F0FDF4" style="stroke:#16A34A;stroke-width:1.5;"/><line style="stroke:#16A34A;stroke-width:1.5;" x1="6" x2="149.0332" y1="65.5938" y2="65.5938"/><text fill="#000000" font-family="sans-serif" font-size="14" font-weight="bold" lengthAdjust="spacing" textLength="130.0332" x="10" y="58.292">Repository layer</text></g><!--entity collectionsRepo--><g class="entity" data-qualified-name="Repository layer.collectionsRepo" data-source-line="20" id="ent0003"><rect fill="#FFFFFF" height="68.8906" rx="2.5" ry="2.5" style="stroke:#16A34A;stroke-width:0.5;" width="207.6465" x="523.18" y="78.2969"/><text fill="#0F172A" font-family="sans-serif" font-size="14" lengthAdjust="spacing" textLength="116.7852" x="533.18" y="101.292">Collections Repo</text><text fill="#0F172A" font-family="sans-serif" font-size="14" lengthAdjust="spacing" textLength="184.2969" x="533.18" y="117.5889">qdr__collections metadata</text><text fill="#0F172A" font-family="sans-serif" font-size="14" lengthAdjust="spacing" textLength="187.6465" x="533.18" y="133.8857">last_accessed_at throttling</text></g><!--entity pointsRepo--><g class="entity" data-qualified-name="Repository layer.pointsRepo" data-source-line="21" id="ent0004"><rect fill="#FFFFFF" height="68.8906" rx="2.5" ry="2.5" style="stroke:#16A34A;stroke-width:0.5;" width="218.5088" x="269.75" y="78.2969"/><text fill="#0F172A" font-family="sans-serif" font-size="14" lengthAdjust="spacing" textLength="82.7969" x="279.75" y="101.292">Points Repo</text><text fill="#0F172A" font-family="sans-serif" font-size="14" lengthAdjust="spacing" textLength="149.8027" x="279.75" y="117.5889">pointsRepo.one-table</text><text fill="#0F172A" font-family="sans-serif" font-size="14" lengthAdjust="spacing" textLength="198.5088" x="279.75" y="133.8857">exact top-k over embedding</text></g><!--entity pathHelpers--><g class="entity" data-qualified-name="Repository layer.pathHelpers" data-source-line="22" id="ent0005"><rect fill="#FFFFFF" height="68.8906" rx="2.5" ry="2.5" style="stroke:#16A34A;stroke-width:0.5;" width="229.9658" x="22.02" y="269.4369"/><text fill="#0F172A" font-family="sans-serif" font-size="14" lengthAdjust="spacing" textLength="156.8643" x="32.02" y="292.432">Path Segment Helpers</text><text fill="#0F172A" font-family="sans-serif" font-size="14" lengthAdjust="spacing" textLength="209.9658" x="32.02" y="308.7289">pathSegments.* search/query</text><text fill="#0F172A" font-family="sans-serif" font-size="14" lengthAdjust="spacing" textLength="152.0928" x="32.02" y="325.0257">lookup-driven deletes</text></g><!--entity payloadSign--><g class="entity" data-qualified-name="Repository layer.payloadSign" data-source-line="23" id="ent0006"><rect fill="#FFFFFF" height="68.8906" rx="2.5" ry="2.5" style="stroke:#16A34A;stroke-width:0.5;" width="194.5215" x="286.74" y="269.4369"/><text fill="#0F172A" font-family="sans-serif" font-size="14" lengthAdjust="spacing" textLength="111.8633" x="296.74" y="292.432">Payload Signing</text><text fill="#0F172A" font-family="sans-serif" font-size="14" lengthAdjust="spacing" textLength="131.9746" x="296.74" y="308.7289">HMAC with api-key</text><text fill="#0F172A" font-family="sans-serif" font-size="14" lengthAdjust="spacing" textLength="174.5215" x="296.74" y="325.0257">payload_sign verification</text></g><!--entity tenantUtils--><g class="entity" data-qualified-name="Repository layer.tenantUtils" data-source-line="24" id="ent0007"><rect fill="#FFFFFF" height="68.8906" rx="2.5" ry="2.5" style="stroke:#16A34A;stroke-width:0.5;" width="214.9131" x="516.54" y="269.4369"/><text fill="#0F172A" font-family="sans-serif" font-size="14" lengthAdjust="spacing" textLength="106.1211" x="526.54" y="292.432">Tenant Utilities</text><text fill="#0F172A" font-family="sans-serif" font-size="14" lengthAdjust="spacing" textLength="105.4238" x="526.54" y="308.7289">sanitize names</text><text fill="#0F172A" font-family="sans-serif" font-size="14" lengthAdjust="spacing" textLength="194.9131" x="526.54" y="325.0257">api-key/userUid namespace</text></g><!--entity ydbTables--><g class="entity" data-qualified-name="ydbTables" data-source-line="27" id="ent0008"><path d="M766.86,234.1869 C766.86,224.1869 898.9977,224.1869 898.9977,224.1869 C898.9977,224.1869 1031.1354,224.1869 1031.1354,234.1869 L1031.1354,373.5619 C1031.1354,383.5619 898.9977,383.5619 898.9977,383.5619 C898.9977,383.5619 766.86,383.5619 766.86,373.5619 L766.86,234.1869" fill="#EEF2FF" style="stroke:#4F46E5;stroke-width:0.5;"/><path d="M766.86,234.1869 C766.86,244.1869 898.9977,244.1869 898.9977,244.1869 C898.9977,244.1869 1031.1354,244.1869 1031.1354,234.1869" fill="none" style="stroke:#4F46E5;stroke-width:0.5;"/><text fill="#000000" font-family="sans-serif" font-size="14" lengthAdjust="spacing" textLength="79.2012" x="776.86" y="261.182">YDB Tables</text><text fill="#000000" font-family="sans-serif" font-size="14" lengthAdjust="spacing" textLength="4.4502" x="776.86" y="277.4789">&#160;</text><text fill="#000000" font-family="sans-serif" font-size="14" lengthAdjust="spacing" textLength="111.9932" x="776.86" y="293.7757">qdr__collections</text><text fill="#000000" font-family="sans-serif" font-size="14" lengthAdjust="spacing" textLength="119.8271" x="776.86" y="310.0726">qdrant_all_points</text><text fill="#000000" font-family="sans-serif" font-size="14" lengthAdjust="spacing" textLength="148.9619" x="776.86" y="326.3695">qdrant_points_by_file</text><text fill="#000000" font-family="sans-serif" font-size="14" lengthAdjust="spacing" textLength="4.4502" x="776.86" y="342.6664">&#160;</text><text fill="#000000" font-family="sans-serif" font-size="14" lengthAdjust="spacing" textLength="219.625" x="776.86" y="358.9632">collection, point_id, embedding</text><text fill="#000000" font-family="sans-serif" font-size="14" lengthAdjust="spacing" textLength="244.2754" x="776.86" y="375.2601">payload, payload_sign, path_prefix</text></g><!--link collectionsRepo to ydbTables--><g class="link" data-entity-1="ent0003" data-entity-2="ent0008" data-link-type="dependency" data-source-line="29" id="lnk9"><path d="M731.14,131.9069 C763.68,141.3769 798.07,155.6669 825,177.1869 C840.72,189.7669 850.6909,201.5274 861.2709,218.8374" fill="none" id="collectionsRepo-to-ydbTables" style="stroke:#181818;stroke-width:1;"/><polygon fill="#181818" points="864.4,223.9569,863.1194,214.1916,861.7925,219.6906,856.2934,218.3637,864.4,223.9569" style="stroke:#181818;stroke-width:1;"/><text fill="#000000" font-family="sans-serif" font-size="13" lengthAdjust="spacing" textLength="147.3101" x="843" y="190.2538">metadata reads/writes</text></g><!--link pointsRepo to ydbTables--><g class="link" data-entity-1="ent0004" data-entity-2="ent0008" data-link-type="dependency" data-source-line="30" id="lnk10"><path d="M488.59,144.1969 C579.09,169.7969 700.01,205.1669 747,224.1869 C753.47,226.8169 754.5588,227.1762 761.1388,230.1062" fill="none" id="pointsRepo-to-ydbTables" style="stroke:#181818;stroke-width:1;"/><polygon fill="#181818" points="766.62,232.5469,760.0254,225.2317,762.0524,230.513,756.7711,232.5399,766.62,232.5469" style="stroke:#181818;stroke-width:1;"/><text fill="#000000" font-family="sans-serif" font-size="13" lengthAdjust="spacing" textLength="106.4756" x="652" y="190.2538">point operations</text></g><!--link pointsRepo to pathHelpers--><g class="link" data-entity-1="ent0004" data-entity-2="ent0005" data-link-type="dependency" data-source-line="31" id="lnk11"><path d="M335.74,147.5569 C291.82,181.8769 228.9472,231.0118 185.0272,265.3418" fill="none" id="pointsRepo-to-pathHelpers" style="stroke:#181818;stroke-width:1;"/><polygon fill="#181818" points="180.3,269.0369,189.8542,266.6458,184.2394,265.9577,184.9275,260.3428,180.3,269.0369" style="stroke:#181818;stroke-width:1;"/></g><!--link pointsRepo to payloadSign--><g class="link" data-entity-1="ent0004" data-entity-2="ent0006" data-link-type="dependency" data-source-line="32" id="lnk12"><path d="M379.89,147.5569 C380.8,181.8769 382.041,228.709 382.951,263.039" fill="none" id="pointsRepo-to-payloadSign" style="stroke:#181818;stroke-width:1;"/><polygon fill="#181818" points="383.11,269.0369,386.8701,259.934,382.9775,264.0386,378.8729,260.146,383.11,269.0369" style="stroke:#181818;stroke-width:1;"/></g><!--link collectionsRepo to tenantUtils--><g class="link" data-entity-1="ent0003" data-entity-2="ent0007" data-link-type="dependency" data-source-line="33" id="lnk13"><path d="M626.46,147.5569 C625.92,181.8769 625.1744,228.7076 624.6344,263.0376" fill="none" id="collectionsRepo-to-tenantUtils" style="stroke:#181818;stroke-width:1;"/><polygon fill="#181818" points="624.54,269.0369,628.6811,260.1009,624.6186,264.0375,620.682,259.9751,624.54,269.0369" style="stroke:#181818;stroke-width:1;"/></g><!--link pointsRepo to tenantUtils--><g class="link" data-entity-1="ent0004" data-entity-2="ent0007" data-link-type="dependency" data-source-line="34" id="lnk14"><path d="M422.8,147.5569 C467.26,181.8769 530.9506,231.0404 575.4206,265.3704" fill="none" id="pointsRepo-to-tenantUtils" style="stroke:#181818;stroke-width:1;"/><polygon fill="#181818" points="580.17,269.0369,575.4902,260.3709,576.2121,265.9815,570.6016,266.7035,580.17,269.0369" style="stroke:#181818;stroke-width:1;"/></g><?plantuml-src bL9DRzim3BtxLn3PROYRjikweOS1QHAZXmqOrlOm8831M8mZH95SIMdh3VtlenGdTZukyyaY-Hx9z-YbLmHZiwwC9krX8h6qkBw5NrGP9xsnDNp7ccoIk9NK5N8IvbYiIcisMeoDCXO-P5-pKJRkLBWb2lCgTGaBL8uwcOgnM1ByJG3kZ1La6uwhcz6duIX4JzWliqasJDuxB9OAZxfK_ySJFyvaHlicTfbTVRaU7N0Bz3X7TuPwc0rlff_FKK-dsJLJloV9RhzUHq0L1En5ldRm7aCLlwJHBgezqy_2vddH2Q_9OnXdfXKwdsDHa7CaSlJWbzPuhrZY7g233Yfm7NRwQQJskoPLV8J_2xOyvLqLpJIzOS6afafNO5x80gtd9CIElWKTCQDVmWELwt0xzwGgievRSBG9kekFu0XjiHmyRyZMl8angqsL2YjVI8CWHPxSjWd36exZBhKoAE11bfedckdx7wCnl4hkZPLCLrI7dh4cTrm3l81So0A37Wrrp0Q2G-f7qiYZFtcff9V4mplK_FU7GECwl9iEWuqZ-oJ5DimkKoJs4H_WBhY_lvtUxyaTF0PjcUBKsHXXO8vAvLjnzw7jCv_N-K86QsQw1VQtJkHIz5k7zilteQj2FmgQLvOMyYqEMulvTgGaEReNIDDlRHfkzvV7Mg5mWrShsQMaFOCJG4o1OVEYwYUrNNDFKgqvv-RgQdm4xQJ-0G00?></g></svg>