<?plantuml 1.2026.1?><svg xmlns="http://www.w3.org/2000/svg" xmlns:xlink="http://www.w3.org/1999/xlink" contentStyleType="text/css" data-diagram-type="DESCRIPTION" height="543px" preserveAspectRatio="none" style="width:1006px;height:543px;background:#F8FAFC;" version="1.1" viewBox="0 0 1006 543" width="1006px" zoomAndPan="magnify"><title>Component Diagram: REST API Server</title><defs/><g><rect fill="#F8FAFC" height="543" style="stroke:none;stroke-width:1;" width="1006" x="0" y="0"/><g class="title" data-source-line="1"><text fill="#000000" font-family="sans-serif" font-size="14" font-weight="bold" lengthAdjust="spacing" textLength="300.4531" x="346.1604" y="22.9951">Component Diagram: REST API Server</text></g><!--cluster Express app--><g class="cluster" data-qualified-name="Express app" data-source-line="15" id="ent0002"><path d="M8.5,43.2969 L105.5449,43.2969 A3.75,3.75 0 0 1 108.0449,45.7969 L115.0449,65.5938 L539.5,65.5938 A2.5,2.5 0 0 1 542,68.0938 L542,533.7669 A2.5,2.5 0 0 1 539.5,536.2669 L8.5,536.2669 A2.5,2.5 0 0 1 6,533.7669 L6,45.7969 A2.5,2.5 0 0 1 8.5,43.2969" fill="#ECFEFF" style="stroke:#0891B2;stroke-width:1.5;"/><line style="stroke:#0891B2;stroke-width:1.5;" x1="6" x2="115.0449" y1="65.5938" y2="65.5938"/><text fill="#000000" font-family="sans-serif" font-size="14" font-weight="bold" lengthAdjust="spacing" textLength="96.0449" x="10" y="58.292">Express app</text></g><!--entity app--><g class="entity" data-qualified-name="Express app.app" data-source-line="16" id="ent0003"><rect fill="#FFFFFF" height="52.5938" rx="2.5" ry="2.5" style="stroke:#0891B2;stroke-width:0.5;" width="207.9746" x="33.01" y="78.2969"/><text fill="#0F172A" font-family="sans-serif" font-size="14" lengthAdjust="spacing" textLength="91.2598" x="43.01" y="101.292">buildServer()</text><text fill="#0F172A" font-family="sans-serif" font-size="14" lengthAdjust="spacing" textLength="187.9746" x="43.01" y="117.5889">JSON parser, routes, errors</text></g><!--entity logger--><g class="entity" data-qualified-name="Express app.logger" data-source-line="17" id="ent0004"><rect fill="#FFFFFF" height="52.5938" rx="2.5" ry="2.5" style="stroke:#0891B2;stroke-width:0.5;" width="225.8848" x="24.06" y="207.8969"/><text fill="#0F172A" font-family="sans-serif" font-size="14" lengthAdjust="spacing" textLength="110.4551" x="34.06" y="230.892">Request Logger</text><text fill="#0F172A" font-family="sans-serif" font-size="14" lengthAdjust="spacing" textLength="205.8848" x="34.06" y="247.1889">method, URL, tenant, latency</text></g><!--entity collections--><g class="entity" data-qualified-name="Express app.collections" data-source-line="18" id="ent0005"><rect fill="#FFFFFF" height="68.8906" rx="2.5" ry="2.5" style="stroke:#0891B2;stroke-width:0.5;" width="219.6436" x="22.18" y="321.4869"/><text fill="#0F172A" font-family="sans-serif" font-size="14" lengthAdjust="spacing" textLength="128.0166" x="32.18" y="344.482">Collections Router</text><text fill="#0F172A" font-family="sans-serif" font-size="14" lengthAdjust="spacing" textLength="199.6436" x="32.18" y="360.7789">PUT/GET/DELETE /:collection</text><text fill="#0F172A" font-family="sans-serif" font-size="14" lengthAdjust="spacing" textLength="195.9521" x="32.18" y="377.0757">PUT /:collection/index no-op</text></g><!--entity points--><g class="entity" data-qualified-name="Express app.points" data-source-line="19" id="ent0006"><rect fill="#FFFFFF" height="68.8906" rx="2.5" ry="2.5" style="stroke:#0891B2;stroke-width:0.5;" width="249.1748" x="276.41" y="321.4869"/><text fill="#0F172A" font-family="sans-serif" font-size="14" lengthAdjust="spacing" textLength="94.0283" x="286.41" y="344.482">Points Router</text><text fill="#0F172A" font-family="sans-serif" font-size="14" lengthAdjust="spacing" textLength="213.8555" x="286.41" y="360.7789">upsert, retrieve, search, query</text><text fill="#0F172A" font-family="sans-serif" font-size="14" lengthAdjust="spacing" textLength="229.1748" x="286.41" y="377.0757">delete by IDs or pathSegments.*</text></g><!--entity identity--><g class="entity" data-qualified-name="Express app.identity" data-source-line="20" id="ent0007"><rect fill="#FFFFFF" height="68.8906" rx="2.5" ry="2.5" style="stroke:#0891B2;stroke-width:0.5;" width="237.3418" x="152.33" y="451.3769"/><text fill="#0F172A" font-family="sans-serif" font-size="14" lengthAdjust="spacing" textLength="115.6025" x="162.33" y="474.372">Request Identity</text><text fill="#0F172A" font-family="sans-serif" font-size="14" lengthAdjust="spacing" textLength="142.0029" x="162.33" y="490.6689">api-key, X-Tenant-Id</text><text fill="#0F172A" font-family="sans-serif" font-size="14" lengthAdjust="spacing" textLength="217.3418" x="162.33" y="506.9657">derive userUid and signing key</text></g><!--entity collectionService--><g class="entity" data-qualified-name="collectionService" data-source-line="23" id="ent0008"><rect fill="#FFFFFF" height="52.5938" rx="2.5" ry="2.5" style="stroke:#0891B2;stroke-width:0.5;" width="199.9697" x="558.02" y="459.5269"/><text fill="#0F172A" font-family="sans-serif" font-size="14" lengthAdjust="spacing" textLength="120.9893" x="568.02" y="482.522">CollectionService</text><text fill="#0F172A" font-family="sans-serif" font-size="14" lengthAdjust="spacing" textLength="179.9697" x="568.02" y="498.8189">metadata and last access</text></g><!--entity pointsService--><g class="entity" data-qualified-name="pointsService" data-source-line="24" id="ent0009"><rect fill="#FFFFFF" height="68.8906" rx="2.5" ry="2.5" style="stroke:#0891B2;stroke-width:0.5;" width="207.5439" x="793.23" y="451.3769"/><text fill="#0F172A" font-family="sans-serif" font-size="14" lengthAdjust="spacing" textLength="94.2949" x="803.23" y="474.372">PointsService</text><text fill="#0F172A" font-family="sans-serif" font-size="14" lengthAdjust="spacing" textLength="187.5439" x="803.23" y="490.6689">limit alias, score_threshold</text><text fill="#0F172A" font-family="sans-serif" font-size="14" lengthAdjust="spacing" textLength="164.958" x="803.23" y="506.9657">query vector extraction</text></g><!--link app to logger--><g class="link" data-entity-1="ent0003" data-entity-2="ent0004" data-link-type="dependency" data-source-line="26" id="lnk10"><path d="M137,131.1069 C137,153.3669 137,179.4769 137,201.7169" fill="none" id="app-to-logger" style="stroke:#181818;stroke-width:1;"/><polygon fill="#181818" points="137,207.7169,141,198.7169,137,202.7169,133,198.7169,137,207.7169" style="stroke:#181818;stroke-width:1;"/><text fill="#000000" font-family="sans-serif" font-size="13" lengthAdjust="spacing" textLength="76.3306" x="138" y="173.9638">middleware</text></g><!--link logger to collections--><g class="link" data-entity-1="ent0004" data-entity-2="ent0005" data-link-type="dependency" data-source-line="27" id="lnk11"><path d="M135.93,260.8769 C135.19,278.4669 134.461,295.9921 133.661,315.1021" fill="none" id="logger-to-collections" style="stroke:#181818;stroke-width:1;"/><polygon fill="#181818" points="133.41,321.0969,137.7829,312.2721,133.6191,316.1013,129.7899,311.9374,133.41,321.0969" style="stroke:#181818;stroke-width:1;"/></g><!--link logger to points--><g class="link" data-entity-1="ent0004" data-entity-2="ent0006" data-link-type="dependency" data-source-line="28" id="lnk12"><path d="M193.63,260.8769 C232.42,278.4669 278.7954,299.5093 320.9454,318.6193" fill="none" id="logger-to-points" style="stroke:#181818;stroke-width:1;"/><polygon fill="#181818" points="326.41,321.0969,319.8648,313.7375,321.8562,319.0323,316.5614,321.0236,326.41,321.0969" style="stroke:#181818;stroke-width:1;"/></g><!--link collections to identity--><g class="link" data-entity-1="ent0005" data-entity-2="ent0007" data-link-type="dependency" data-source-line="29" id="lnk13"><path d="M168.88,390.8669 C189.15,409.5169 209.7942,428.5048 230.0142,447.1048" fill="none" id="collections-to-identity" style="stroke:#181818;stroke-width:1;"/><polygon fill="#181818" points="234.43,451.1669,230.5143,442.1299,230.7501,447.7818,225.0982,448.0177,234.43,451.1669" style="stroke:#181818;stroke-width:1;"/></g><!--link points to identity--><g class="link" data-entity-1="ent0006" data-entity-2="ent0007" data-link-type="dependency" data-source-line="30" id="lnk14"><path d="M366.5,390.8669 C347.55,409.5169 328.3976,428.3594 309.4876,446.9594" fill="none" id="points-to-identity" style="stroke:#181818;stroke-width:1;"/><polygon fill="#181818" points="305.21,451.1669,314.4313,447.7074,308.7746,447.6607,308.8214,442.004,305.21,451.1669" style="stroke:#181818;stroke-width:1;"/></g><!--link collections to collectionService--><g class="link" data-entity-1="ent0005" data-entity-2="ent0008" data-link-type="dependency" data-source-line="31" id="lnk15"><path d="M242.06,386.2369 C247.78,387.6669 253.46,389.0469 259,390.3769 C384.13,420.3269 417.22,419.9769 542,451.3769 C551.45,453.7569 555.5148,454.7857 565.2948,457.4757" fill="none" id="collections-to-collectionService" style="stroke:#181818;stroke-width:1;"/><polygon fill="#181818" points="571.08,459.0669,563.4631,452.8233,566.259,457.7409,561.3415,460.5368,571.08,459.0669" style="stroke:#181818;stroke-width:1;"/></g><!--link points to pointsService--><g class="link" data-entity-1="ent0006" data-entity-2="ent0009" data-link-type="dependency" data-source-line="32" id="lnk16"><path d="M525.81,382.8469 C575.26,393.6569 632.5,406.8369 684,420.3769 C719.68,429.7569 752.6417,439.3643 787.1517,449.9043" fill="none" id="points-to-pointsService" style="stroke:#181818;stroke-width:1;"/><polygon fill="#181818" points="792.89,451.6569,785.4509,445.2024,788.1081,450.1964,783.1141,452.8535,792.89,451.6569" style="stroke:#181818;stroke-width:1;"/></g><?plantuml-src bP9DRzf048Rl_XKZUcahkpIvDELGYO1TKQ4MyI7rW5GDtgczOjbrTnSI5FM_TxmnO9DSoidCn_FElBDUUaKmChlAQD8UnX8BYxi1pDF54eQp2Ip87iX6aTjANI7dO8Fvjh1chyN8A6FXJNQN3RDHgyALACo3r0NyHkMebQcu5mk2fmZWtbX1jc5ylFjyStzRHw_fwIXBiopwsw9OoZtgGlqN9mi_pcH6-rDrTlFfTiZiw3HOBtsiB3a7M5MzWB-8zJPxgSIp8M_VhVMtnO_ll95rP6DWAKyk1hBMMDS338Xk_vp-xCbvc9gY8BlME_Ab4J6ivjCOF6dKFWQ5_9KV0q65mYw4HrVyJnhjO5wBCcYsMlQ_fil-E9sconJwW_nS59ATI5zgGO-WJMAge799kQxKp4ZjBohxYZVb2IrvA-b0CJX2cvSny5hsk6Qi8a-mES9ax80Dhj2N2ofs_BJSX_T1h0hCrtsP22wKdabOoMHBnnX-9ilWIp8HDT_A0y6UnrX90QW5E5de-g5nSS3B1b7Vz5NJwlF9d8BvAD1Zm2XaUSnplloL9KrzzCAMCqZ9dUHc9P7Fxt9ZwPSl-GsLHl7CmHeuS3VxGO_UOi2sl3WfHFnU84c-D5U70Uoa48eUq5BKnEfq-rojS6DiAnl2PqEUyztOTV7BjLjTdMd_0G00?></g></svg>