<?plantuml 1.2026.1?><svg xmlns="http://www.w3.org/2000/svg" xmlns:xlink="http://www.w3.org/1999/xlink" contentStyleType="text/css" data-diagram-type="DESCRIPTION" height="840px" preserveAspectRatio="none" style="width:518px;height:840px;background:#F8FAFC;" version="1.1" viewBox="0 0 518 840" width="518px" zoomAndPan="magnify"><title>Container Diagram: YDB Qdrant</title><defs/><g><rect fill="#F8FAFC" height="840" style="stroke:none;stroke-width:1;" width="518" x="0" y="0"/><g class="title" data-source-line="1"><text fill="#000000" font-family="sans-serif" font-size="14" font-weight="bold" lengthAdjust="spacing" textLength="251.5762" x="126.2119" y="22.9951">Container Diagram: YDB Qdrant</text></g><!--cluster ydb-qdrant service / package--><g class="cluster" data-qualified-name="ydb-qdrant service . package" data-source-line="21" id="ent0002"><path d="M8.5,43.2969 L239.7617,43.2969 A3.75,3.75 0 0 1 242.2617,45.7969 L249.2617,65.5938 L508.5,65.5938 A2.5,2.5 0 0 1 511,68.0938 L511,582.0669 A2.5,2.5 0 0 1 508.5,584.5669 L8.5,584.5669 A2.5,2.5 0 0 1 6,582.0669 L6,45.7969 A2.5,2.5 0 0 1 8.5,43.2969" fill="#EFF6FF" style="stroke:#2563EB;stroke-width:1.5;"/><line style="stroke:#2563EB;stroke-width:1.5;" x1="6" x2="249.2617" y1="65.5938" y2="65.5938"/><text fill="#0F172A" font-family="sans-serif" font-size="14" font-weight="bold" lengthAdjust="spacing" textLength="230.2617" x="10" y="58.292">ydb-qdrant service / package</text></g><!--entity rest--><g class="entity" data-qualified-name="ydb-qdrant service . package.rest" data-source-line="22" id="ent0003"><rect fill="#FFFFFF" height="68.8906" rx="2.5" ry="2.5" style="stroke:#2563EB;stroke-width:0.5;" width="231.1758" x="263.41" y="78.2969"/><text fill="#0F172A" font-family="sans-serif" font-size="14" lengthAdjust="spacing" textLength="112.9707" x="273.41" y="101.292">REST API Server</text><text fill="#0F172A" font-family="sans-serif" font-size="14" lengthAdjust="spacing" textLength="116.0469" x="273.41" y="117.5889">Node.js, Express</text><text fill="#0F172A" font-family="sans-serif" font-size="14" lengthAdjust="spacing" textLength="211.1758" x="273.41" y="133.8857">/collections and /points routes</text></g><!--entity pkg--><g class="entity" data-qualified-name="ydb-qdrant service . package.pkg" data-source-line="23" id="ent0004"><rect fill="#FFFFFF" height="68.8906" rx="2.5" ry="2.5" style="stroke:#2563EB;stroke-width:0.5;" width="206.3477" x="21.83" y="78.2969"/><text fill="#0F172A" font-family="sans-serif" font-size="14" lengthAdjust="spacing" textLength="85.5039" x="31.83" y="101.292">Package API</text><text fill="#0F172A" font-family="sans-serif" font-size="14" lengthAdjust="spacing" textLength="160.207" x="31.83" y="117.5889">createYdbQdrantClient</text><text fill="#0F172A" font-family="sans-serif" font-size="14" lengthAdjust="spacing" textLength="186.3477" x="31.83" y="133.8857">requires apiKey or userUid</text></g><!--entity services--><g class="entity" data-qualified-name="ydb-qdrant service . package.services" data-source-line="24" id="ent0005"><rect fill="#FFFFFF" height="68.8906" rx="2.5" ry="2.5" style="stroke:#2563EB;stroke-width:0.5;" width="253.625" x="104.19" y="224.1869"/><text fill="#0F172A" font-family="sans-serif" font-size="14" lengthAdjust="spacing" textLength="95.2246" x="114.19" y="247.182">Service Layer</text><text fill="#0F172A" font-family="sans-serif" font-size="14" lengthAdjust="spacing" textLength="224.1846" x="114.19" y="263.4789">CollectionService, PointsService</text><text fill="#0F172A" font-family="sans-serif" font-size="14" lengthAdjust="spacing" textLength="233.625" x="114.19" y="279.7757">validation, normalization, scoring</text></g><!--entity repos--><g class="entity" data-qualified-name="ydb-qdrant service . package.repos" data-source-line="25" id="ent0006"><rect fill="#FFFFFF" height="68.8906" rx="2.5" ry="2.5" style="stroke:#2563EB;stroke-width:0.5;" width="237.5469" x="112.23" y="370.0769"/><text fill="#0F172A" font-family="sans-serif" font-size="14" lengthAdjust="spacing" textLength="118.5557" x="122.23" y="393.072">Repository Layer</text><text fill="#0F172A" font-family="sans-serif" font-size="14" lengthAdjust="spacing" textLength="181.9385" x="122.23" y="409.3689">one-table implementation</text><text fill="#0F172A" font-family="sans-serif" font-size="14" lengthAdjust="spacing" textLength="217.5469" x="122.23" y="425.6657">upsert, search, delete, retrieve</text></g><!--entity client--><g class="entity" data-qualified-name="ydb-qdrant service . package.client" data-source-line="26" id="ent0007"><rect fill="#FFFFFF" height="52.5938" rx="2.5" ry="2.5" style="stroke:#2563EB;stroke-width:0.5;" width="251.7861" x="105.11" y="515.9669"/><text fill="#0F172A" font-family="sans-serif" font-size="14" lengthAdjust="spacing" textLength="73.917" x="115.11" y="538.962">YDB Client</text><text fill="#0F172A" font-family="sans-serif" font-size="14" lengthAdjust="spacing" textLength="231.7861" x="115.11" y="555.2589">ydb-sdk sessions and credentials</text></g><!--entity ydb--><g class="entity" data-qualified-name="ydb" data-source-line="29" id="ent0008"><path d="M120.08,657.5669 C120.08,647.5669 230.9955,647.5669 230.9955,647.5669 C230.9955,647.5669 341.9111,647.5669 341.9111,657.5669 L341.9111,813.2388 C341.9111,823.2388 230.9955,823.2388 230.9955,823.2388 C230.9955,823.2388 120.08,823.2388 120.08,813.2388 L120.08,657.5669" fill="#EEF2FF" style="stroke:#4F46E5;stroke-width:0.5;"/><path d="M120.08,657.5669 C120.08,667.5669 230.9955,667.5669 230.9955,667.5669 C230.9955,667.5669 341.9111,667.5669 341.9111,657.5669" fill="none" style="stroke:#4F46E5;stroke-width:0.5;"/><text fill="#0F172A" font-family="sans-serif" font-size="14" lengthAdjust="spacing" textLength="28.9365" x="130.08" y="684.562">YDB</text><text fill="#0F172A" font-family="sans-serif" font-size="14" lengthAdjust="spacing" textLength="167.6377" x="130.08" y="700.8589">Distributed SQL storage</text><text fill="#0F172A" font-family="sans-serif" font-size="14" lengthAdjust="spacing" textLength="4.4502" x="130.08" y="717.1557">&#160;</text><text fill="#0F172A" font-family="sans-serif" font-size="14" lengthAdjust="spacing" textLength="111.9932" x="130.08" y="733.4526">qdr__collections</text><text fill="#0F172A" font-family="sans-serif" font-size="14" lengthAdjust="spacing" textLength="119.8271" x="130.08" y="749.7495">qdrant_all_points</text><text fill="#0F172A" font-family="sans-serif" font-size="14" lengthAdjust="spacing" textLength="148.9619" x="130.08" y="766.0464">qdrant_points_by_file</text><text fill="#0F172A" font-family="sans-serif" font-size="14" lengthAdjust="spacing" textLength="4.4502" x="130.08" y="782.3432">&#160;</text><text fill="#0F172A" font-family="sans-serif" font-size="14" lengthAdjust="spacing" textLength="198.7412" x="130.08" y="798.6401">Exact top-k over embedding</text><text fill="#0F172A" font-family="sans-serif" font-size="14" lengthAdjust="spacing" textLength="201.8311" x="130.08" y="814.937">Auto-partitioned points table</text></g><!--link rest to services--><g class="link" data-entity-1="ent0003" data-entity-2="ent0005" data-link-type="dependency" data-source-line="31" id="lnk9"><path d="M344.3,147.4769 C320.63,170.4869 293.7122,196.6646 270.0422,219.6746" fill="none" id="rest-to-services" style="stroke:#181818;stroke-width:1;"/><polygon fill="#181818" points="265.74,223.8569,274.9815,220.4517,269.3252,220.3717,269.4051,214.7154,265.74,223.8569" style="stroke:#181818;stroke-width:1;"/><text fill="#000000" font-family="sans-serif" font-size="13" lengthAdjust="spacing" textLength="95.1895" x="310" y="190.2538">route handlers</text></g><!--link pkg to services--><g class="link" data-entity-1="ent0004" data-entity-2="ent0005" data-link-type="dependency" data-source-line="32" id="lnk10"><path d="M149.85,147.4769 C166.86,170.5769 185.7717,196.2359 202.7417,219.2759" fill="none" id="pkg-to-services" style="stroke:#181818;stroke-width:1;"/><polygon fill="#181818" points="206.3,224.1069,204.1833,214.4882,203.3348,220.081,197.7419,219.2325,206.3,224.1069" style="stroke:#181818;stroke-width:1;"/><text fill="#000000" font-family="sans-serif" font-size="13" lengthAdjust="spacing" textLength="83.4463" x="182" y="190.2538">method calls</text></g><!--link services to repos--><g class="link" data-entity-1="ent0005" data-entity-2="ent0006" data-link-type="dependency" data-source-line="33" id="lnk11"><path d="M231,293.3669 C231,316.4669 231,340.9569 231,363.9969" fill="none" id="services-to-repos" style="stroke:#181818;stroke-width:1;"/><polygon fill="#181818" points="231,369.9969,235,360.9969,231,364.9969,227,360.9969,231,369.9969" style="stroke:#181818;stroke-width:1;"/><text fill="#000000" font-family="sans-serif" font-size="13" lengthAdjust="spacing" textLength="129.981" x="232" y="336.1438">business operations</text></g><!--link repos to client--><g class="link" data-entity-1="ent0006" data-entity-2="ent0007" data-link-type="dependency" data-source-line="34" id="lnk12"><path d="M231,439.4269 C231,463.1469 231,488.3169 231,509.8969" fill="none" id="repos-to-client" style="stroke:#181818;stroke-width:1;"/><polygon fill="#181818" points="231,515.8969,235,506.8969,231,510.8969,227,506.8969,231,515.8969" style="stroke:#181818;stroke-width:1;"/><text fill="#000000" font-family="sans-serif" font-size="13" lengthAdjust="spacing" textLength="87.3247" x="232" y="482.0338">withSession()</text></g><!--link client to ydb--><g class="link" data-entity-1="ent0007" data-entity-2="ent0008" data-link-type="dependency" data-source-line="35" id="lnk13"><path d="M231,569.0469 C231,589.3269 231,612.8169 231,641.2969" fill="none" id="client-to-ydb" style="stroke:#181818;stroke-width:1;"/><polygon fill="#181818" points="231,647.2969,235,638.2969,231,642.2969,227,638.2969,231,647.2969" style="stroke:#181818;stroke-width:1;"/><text fill="#000000" font-family="sans-serif" font-size="13" lengthAdjust="spacing" textLength="72.2617" x="232" y="613.6338">YQL / gRPC</text></g><?plantuml-src bLJ1RjD04BtxAqRX0b928BG1zO2KEBQ4g53Qm26IfMZjdJfBDhlkphfjGFmxuxKJagW8uPDtvksRDs_6zifhXDWQBvH11pCbIYUsLx2SJU56Ec5y5D56cKfm679HR4fdQoDZgws35-c7T9B6HmXQ2saVbIdXJcZ2eqp5TqM9y3C2c5edqNKSeylnksJQHC_PapGTfobdKXROnTwaRz-F9j6l8sQ7XHUcrF_5dORddznIU94BUeRw8hqO9vVFoaxIqL-fexqFlPtC1_V1OY1q3wf06EvTweLwVnhhtIQBhp2PVu85Gz5bvekL-FexzI5vgXmIPMPOMAtvXhA6G1W9myegumbOcqVgWU1N97zAFE_aC7Tc2eV2urBcxUXZhT3up3YyhnLV1L6fpxW3RgXcoT-K3AJLfZpbN7JjN8jT8pK-wEeIVPW7PTqnCmz2AtQQ4Nqmrctv-ACxKc4ThrCerDb4PzPWPKbvwtRxWjRWWCV6IRMjD6wvYS2McRfY3i-iA5onxeD4ZPxrEFHEuGDs9Z7XQOtcSzYxqSoDv8OvY0vUitEIiugNFd0K0TpC-x113KbcPeguLCuJaR2ukGPYuUn_nk9u6LQheo6628zX9RHUjRCyXDhZAj-jxfGEjvCdKNZmjXfimFAA06vpb9AzoyoazdR02-rLGyoLkyq89WMzt5GKDTi1Wy77Wz5mrIuFhBb7ZOuYdlKvOej-RTa1LadH8Tw0Wf6Co6lYlmiHs0fTc0H5RQv1jLOnx57vzQ8rzUMhg0it21R7wIMxDOJoTXx_1W00?></g></svg>